<?xml version="1.0" encoding="utf-8"?>
<!-- Generator: Adobe Illustrator 24.1.1, SVG Export Plug-In . SVG Version: 6.00 Build 0)  -->
<svg version="1.1" id="Layer_1" xmlns="http://www.w3.org/2000/svg" xmlns:xlink="http://www.w3.org/1999/xlink" x="0px" y="0px"
	 viewBox="0 0 2000 2000" style="enable-background:new 0 0 2000 2000;" xml:space="preserve">
<style type="text/css">
	.st0{fill:#FFFFFF;}
	.st1{fill:none;}
	.st2{fill:#FDE74C;}
</style>
<path class="st0" d="M751.35,1051H746v-52C746,1016.82,747.84,1034.22,751.35,1051z"/>
<path class="st0" d="M751.35,947c-3.51,16.78-5.35,34.18-5.35,52v-52H751.35z"/>
<path class="st0" d="M757.15,1252H746v-11.15C749.63,1244.65,753.35,1248.37,757.15,1252z"/>
<path class="st0" d="M849,1001c0,17.52,2.96,34.34,8.41,50H847V947h11.87C852.49,963.78,849,981.98,849,1001z"/>
<path class="st0" d="M999,1252h-51v-5.14C964.48,1250.23,981.53,1252,999,1252z"/>
<path class="st0" d="M1001,849c-18.64,0-36.5,3.35-53,9.49V849H1001z"/>
<path class="st0" d="M1252,746v11.15c-3.63-3.8-7.35-7.52-11.15-11.15H1252z"/>
<path class="st0" d="M553.99,1051H553v-9.44C553.29,1044.72,553.62,1047.87,553.99,1051z"/>
<path class="st0" d="M553.99,947c-0.37,3.13-0.7,6.28-0.99,9.44V947H553.99z"/>
<path class="st0" d="M956.44,553c-2.82,0.26-5.64,0.55-8.44,0.87V553H956.44z"/>
<path class="st0" d="M652.84,1051H649v-52C649,1016.67,650.31,1034.04,652.84,1051z"/>
<path class="st0" d="M652.84,947c-2.53,16.96-3.84,34.33-3.84,52v-52H652.84z"/>
<path class="st0" d="M757.15,746c-3.8,3.63-7.52,7.35-11.15,11.15V746H757.15z"/>
<path class="st0" d="M999,1349h-51v-3.7C964.65,1347.74,981.68,1349,999,1349z"/>
<path class="st0" d="M999,649c-17.32,0-34.35,1.26-51,3.7V649H999z"/>
<path class="st0" d="M1252,999v52h-5.35C1250.16,1034.22,1252,1016.82,1252,999z"/>
<path class="st0" d="M1252,1240.85V1252h-11.15C1244.65,1248.37,1248.37,1244.65,1252,1240.85z"/>
<path class="st0" d="M1349,947v52c0-17.67-1.31-35.04-3.84-52H1349z"/>
<path class="st0" d="M1449,947v104h-4.99c1.98-17.06,2.99-34.41,2.99-52c0-17.59-1.01-34.94-2.99-52H1449z"/>
<path class="st1" d="M553,956.44v85.12c-1.32-14.01-2-28.2-2-42.56S551.68,970.45,553,956.44z"/>
<path class="st1" d="M652.84,947c-2.53,16.96-3.84,34.33-3.84,52v-52H652.84z"/>
<path class="st1" d="M757.15,746c-3.8,3.63-7.52,7.35-11.15,11.15V746H757.15z"/>
<path class="st1" d="M999,649c-17.32,0-34.35,1.26-51,3.7V649H999z"/>
<path class="st1" d="M1041.56,553h-85.12c14.01-1.32,28.2-2,42.56-2S1027.55,551.68,1041.56,553z"/>
<path class="st1" d="M751.35,1051H746v-52C746,1016.82,747.84,1034.22,751.35,1051z"/>
<path class="st1" d="M751.35,947c-3.51,16.78-5.35,34.18-5.35,52v-52H751.35z"/>
<path class="st1" d="M757.15,1252H746v-11.15C749.63,1244.65,753.35,1248.37,757.15,1252z"/>
<path class="st1" d="M849,1001c0,17.52,2.96,34.34,8.41,50H847V947h11.87C852.49,963.78,849,981.98,849,1001z"/>
<path class="st1" d="M999,1252h-51v-5.14C964.48,1250.23,981.53,1252,999,1252z"/>
<path class="st1" d="M1252,746v11.15c-3.63-3.8-7.35-7.52-11.15-11.15H1252z"/>
<path class="st1" d="M999,1349h-51v-3.7C964.65,1347.74,981.68,1349,999,1349z"/>
<path class="st1" d="M1252,999v52h-5.35C1250.16,1034.22,1252,1016.82,1252,999z"/>
<path class="st1" d="M1252,1240.85V1252h-11.15C1244.65,1248.37,1248.37,1244.65,1252,1240.85z"/>
<path class="st1" d="M1349,947v52c0-17.67-1.31-35.04-3.84-52H1349z"/>
<path class="st2" d="M1349,849V649H948v3.7c-35.7,5.2-69.65,15.8-101,30.95c-33.21,16.03-63.5,37.15-89.85,62.35H746v11.15
	c-25.7,26.88-47.17,57.86-63.31,91.85c-14.49,30.49-24.7,63.42-29.85,98H649v402h350c93.81,0,179.01-36.91,241.85-97H1252v-11.15
	c24.69-25.82,45.47-55.42,61.38-87.85c15.52-31.61,26.41-65.9,31.78-102H1252v-52c0,17.82-1.84,35.22-5.35,52H948v-52
	c0-28.72,23.28-52,52-52h345.16c2.53,16.96,3.84,34.33,3.84,52v-52h95.01c1.98,17.06,2.99,34.41,2.99,52c0,17.59-1.01,34.94-2.99,52
	c-4.09,35.42-12.32,69.59-24.18,102c-12.92,35.29-30.15,68.51-51.07,99c-6.25,9.14-12.85,18.04-19.76,26.67
	c-20.77,25.96-44.37,49.56-70.33,70.33c-8.63,6.91-17.53,13.51-26.67,19.76c-71.99,49.37-159.12,78.24-253,78.24
	c-17.25,0-34.26-0.97-51-2.87v4.87H553v-398h0.99c-0.37-3.13-0.7-6.28-0.99-9.44v-85.12c0.29-3.16,0.62-6.31,0.99-9.44
	c3.92-33.97,11.65-66.78,22.74-98c13.07-36.78,30.8-71.36,52.51-103c6.25-9.14,12.85-18.04,19.76-26.67
	c20.77-25.96,44.37-49.56,70.33-70.33c8.63-6.91,17.53-13.51,26.67-19.76c31.07-21.31,64.96-38.8,101-51.79
	c32.12-11.59,65.94-19.61,101-23.58c2.8-0.32,5.62-0.61,8.44-0.87H1449v296H1349z"/>
<path class="st1" d="M751.35,1051H746v-52C746,1016.82,747.84,1034.22,751.35,1051z"/>
<path class="st1" d="M751.35,947c-3.51,16.78-5.35,34.18-5.35,52v-52H751.35z"/>
<path class="st1" d="M849,1001c0,17.52,2.96,34.34,8.41,50H847V947h11.87C852.49,963.78,849,981.98,849,1001z"/>
<path class="st1" d="M999,1252h-51v-5.14C964.48,1250.23,981.53,1252,999,1252z"/>
<path class="st1" d="M1252,999v52h-5.35C1250.16,1034.22,1252,1016.82,1252,999z"/>
<path class="st1" d="M849,1001c0,17.52,2.96,34.34,8.41,50H847V947h11.87C852.49,963.78,849,981.98,849,1001z"/>
<polyline class="st1" points="746,1051 746,999 746,947 "/>
<line class="st1" x1="746" y1="1252" x2="746" y2="1240.85"/>
<line class="st1" x1="948" y1="1349" x2="948" y2="1345.3"/>
<line class="st1" x1="948" y1="553.87" x2="948" y2="553"/>
<path class="st2" d="M847,1153h352.75c-46.25,60.2-118.97,99-200.75,99c-17.47,0-34.52-1.77-51-5.14v5.14H757.15
	c-3.8-3.63-7.52-7.35-11.15-11.15V1051h5.35c-3.51-16.78-5.35-34.18-5.35-52s1.84-35.22,5.35-52c7.54-36.09,22.77-69.35,43.9-98
	c14.62-19.83,32.07-37.46,51.75-52.27c29.36-22.1,63.69-37.95,101-45.59c16.48-3.37,33.53-5.14,51-5.14h241.85
	c3.8,3.63,7.52,7.35,11.15,11.15V849H948v9.49c-40.98,15.25-73.61,47.67-89.13,88.51H847V1153z"/>
<line class="st1" x1="1252" y1="757.15" x2="1252" y2="746"/>
<line class="st1" x1="1252" y1="746" x2="1240.85" y2="746"/>
<line class="st1" x1="757.15" y1="1252" x2="746" y2="1252"/>
<line class="st1" x1="999" y1="1252" x2="948" y2="1252"/>
<line class="st1" x1="1349" y1="947" x2="1345.16" y2="947"/>
<line class="st1" x1="1449" y1="947" x2="1444.01" y2="947"/>
<line class="st1" x1="751.35" y1="947" x2="746" y2="947"/>
<line class="st1" x1="553.99" y1="947" x2="553" y2="947"/>
<line class="st1" x1="1449" y1="1051" x2="1444.01" y2="1051"/>
<line class="st1" x1="1252" y1="1051" x2="1246.65" y2="1051"/>
<line class="st1" x1="652.84" y1="1051" x2="649" y2="1051"/>
<line class="st1" x1="857.41" y1="1051" x2="847" y2="1051"/>
<line class="st1" x1="1349" y1="849" x2="1315.31" y2="849"/>
</svg>
