<?xml version="1.0" encoding="utf-8"?>
<!-- Generator: Adobe Illustrator 24.1.1, SVG Export Plug-In . SVG Version: 6.00 Build 0)  -->
<svg version="1.1" id="Layer_1" xmlns="http://www.w3.org/2000/svg" xmlns:xlink="http://www.w3.org/1999/xlink" x="0px" y="0px"
	 viewBox="0 0 2000 2000" style="enable-background:new 0 0 2000 2000;" xml:space="preserve">
<style type="text/css">
	.st0{fill:url(#SVGID_1_);}
	.st1{fill:url(#SVGID_2_);}
	.st2{fill:none;}
	.st3{fill:url(#SVGID_3_);}
	.st4{fill:url(#SVGID_4_);}
</style>
<linearGradient id="SVGID_1_" gradientUnits="userSpaceOnUse" x1="1083.97" y1="479.3546" x2="1083.97" y2="1451.4554">
	<stop  offset="0" style="stop-color:#ED1E79"/>
	<stop  offset="0" style="stop-color:#ED1F78"/>
	<stop  offset="0" style="stop-color:#EF2B73"/>
	<stop  offset="0" style="stop-color:#EE2376"/>
	<stop  offset="1.960000e-02" style="stop-color:#EE2476"/>
	<stop  offset="0.4441" style="stop-color:#F03D6B"/>
	<stop  offset="0.4811" style="stop-color:#F14C65"/>
	<stop  offset="0.5844" style="stop-color:#F57056"/>
	<stop  offset="0.6885" style="stop-color:#F88C4A"/>
	<stop  offset="0.7925" style="stop-color:#F9A042"/>
	<stop  offset="0.8964" style="stop-color:#FBAC3D"/>
	<stop  offset="1" style="stop-color:#FBB03B"/>
</linearGradient>
<path class="st0" d="M1570,1000.8c0,17.2-0.9,34.2-2.7,51c-1.8,17.3-4.6,34.3-8.2,51c-47.2,219.4-242.4,383.6-475.9,383.3
	c-233.4-0.4-428.2-165.2-474.7-384.8c-3.5-16.7-6.2-33.7-8-51c-1.7-16.8-2.6-33.8-2.6-51s1-34.2,2.7-51c1.9-17.6,4.7-35,8.4-52
	c47.6-218.9,242.6-382.6,475.7-382.3c233.1,0.3,427.6,164.7,474.5,383.8l-124.8-0.2c-44.2-151.5-184-262.3-349.8-262.5
	s-306,110.1-350.7,261.4c-5,16.8-8.8,34.2-11.3,52c-2.3,16.7-3.6,33.7-3.6,51s1.2,34.3,3.5,51c2.4,17.4,6.1,34.5,10.8,51
	c43.9,152,184,263.3,350.1,263.6s306.6-110.6,351-262.5c4.8-16.5,8.5-33.6,11-51l-177.4-0.3c4.5-16.2,6.9-33.3,7-51
	s-2.3-34.8-6.8-51l299.2,0.5C1569.1,966.6,1570,983.6,1570,1000.8z"/>
<linearGradient id="SVGID_2_" gradientUnits="userSpaceOnUse" x1="1075.3199" y1="690.1491" x2="1075.3199" y2="1310.1508">
	<stop  offset="0" style="stop-color:#ED1E79"/>
	<stop  offset="0" style="stop-color:#ED1F78"/>
	<stop  offset="0" style="stop-color:#EF2B73"/>
	<stop  offset="0" style="stop-color:#EE2376"/>
	<stop  offset="1.960000e-02" style="stop-color:#EE2476"/>
	<stop  offset="0.4441" style="stop-color:#F03D6B"/>
	<stop  offset="0.4811" style="stop-color:#F14C65"/>
	<stop  offset="0.5844" style="stop-color:#F57056"/>
	<stop  offset="0.6885" style="stop-color:#F88C4A"/>
	<stop  offset="0.7925" style="stop-color:#F9A042"/>
	<stop  offset="0.8964" style="stop-color:#FBAC3D"/>
	<stop  offset="1" style="stop-color:#FBB03B"/>
</linearGradient>
<path class="st1" d="M1376.6,1102.6c-42.4,121-157.7,207.8-293.2,207.5S833,1222.8,791,1101.6c-5.7-16.4-10-33.5-12.9-51
	c-2.7-16.6-4.1-33.6-4.1-51s1.5-34.4,4.3-51c3-17.9,7.5-35.3,13.4-52c42.7-120.5,157.7-206.8,292.8-206.5s249.9,86.8,292.1,207.5
	l-131.6-0.3c-33.9-53-93.2-88.2-160.7-88.3s-127,34.9-161,87.8c-10.2,15.9-18.1,33.3-23.3,52c-4.5,16.2-6.9,33.3-7,51
	c0,17.7,2.3,34.8,6.8,51c5,18.3,12.7,35.4,22.5,51c33.8,53.5,93.4,89.2,161.4,89.3c68,0.1,127.7-35.3,161.7-88.8L1376.6,1102.6z"/>
<line class="st2" x1="868" y1="1292.5" x2="868" y2="1294.2"/>
<linearGradient id="SVGID_3_" gradientUnits="userSpaceOnUse" x1="1676.23" y1="1493.38" x2="1676.23" y2="514.05">
	<stop  offset="0" style="stop-color:#FFFFFF"/>
	<stop  offset="0.1818" style="stop-color:#FCFCFC"/>
	<stop  offset="0.3094" style="stop-color:#F3F3F3"/>
	<stop  offset="0.4205" style="stop-color:#E4E3E4"/>
	<stop  offset="0.5222" style="stop-color:#CECDCE"/>
	<stop  offset="0.6174" style="stop-color:#B2B1B1"/>
	<stop  offset="0.7078" style="stop-color:#908E8F"/>
	<stop  offset="0.7929" style="stop-color:#686666"/>
	<stop  offset="0.868" style="stop-color:#3E3B3C"/>
	<stop  offset="1" style="stop-color:#000000"/>
</linearGradient>
<polygon class="st3" points="1852.1,1003.7 1852.1,1003.7 1785.3,1153.6 1718.6,1303.4 1633.9,1493.4 1500.4,1493.4 1633.9,1193.7 
	1718.5,1003.7 1718.6,1003.7 1718.6,1003.7 1633.9,813.8 1500.4,514.1 1633.9,514.1 1718.6,704 1785.3,853.8 "/>
<linearGradient id="SVGID_4_" gradientUnits="userSpaceOnUse" x1="2857.9028" y1="510.335" x2="2857.9028" y2="1489.665" gradientTransform="matrix(-1 0 0 1 3352.4602 0)">
	<stop  offset="0" style="stop-color:#FFFFFF"/>
	<stop  offset="0.1818" style="stop-color:#FCFCFC"/>
	<stop  offset="0.3094" style="stop-color:#F3F3F3"/>
	<stop  offset="0.4205" style="stop-color:#E4E3E4"/>
	<stop  offset="0.5222" style="stop-color:#CECDCE"/>
	<stop  offset="0.6174" style="stop-color:#B2B1B1"/>
	<stop  offset="0.7078" style="stop-color:#908E8F"/>
	<stop  offset="0.7929" style="stop-color:#686666"/>
	<stop  offset="0.868" style="stop-color:#3E3B3C"/>
	<stop  offset="1" style="stop-color:#000000"/>
</linearGradient>
<polygon class="st4" points="318.7,1000 318.7,1000 385.5,1149.9 452.2,1299.7 536.9,1489.7 670.4,1489.7 536.9,1190 452.2,1000 
	452.2,1000 452.2,1000 536.9,810 670.4,510.3 536.9,510.3 452.2,700.3 385.5,850.1 "/>
</svg>
