<?xml version="1.0" encoding="utf-8"?>
<!-- Generator: Adobe Illustrator 24.1.1, SVG Export Plug-In . SVG Version: 6.00 Build 0)  -->
<svg version="1.1" id="Layer_1" xmlns="http://www.w3.org/2000/svg" xmlns:xlink="http://www.w3.org/1999/xlink" x="0px" y="0px"
	 viewBox="0 0 2000 2000" style="enable-background:new 0 0 2000 2000;" xml:space="preserve">
<style type="text/css">
	.st0{fill:#FFFFFF;}
	.st1{fill:none;stroke:#0D0021;stroke-width:2;stroke-miterlimit:10;}
</style>
<polygon class="st0" points="888.4,864.7 888.4,723.5 636.7,973 691.7,1027.6 888.4,1222.6 888.4,1027.6 818.7,1027.6 818.7,919 
	1000,919 1000,1481.9 541.6,1027.6 486.8,973.3 1000,464.7 1000,864.7 "/>
<polygon class="st0" points="1355.1,1061.5 1512.4,1061.5 1184.4,1373.8 1071,1481.9 1071,464.7 1605,973.3 1294.8,973.3 
	1294.8,884.1 1354.6,884.1 1184.4,722 1184.4,1224.1 "/>
<line class="st1" x1="1867.5" y1="984.4" x2="1864.8" y2="984.4"/>
<line class="st1" x1="1867.5" y1="987.2" x2="1867.5" y2="984.4"/>
<polygon class="st0" points="1819.7,975.5 1760.5,1033.3 1699.4,1092.9 1458.3,1328 1338,1328 1458.3,1209.9 1699.4,973.3 
	1699.4,973.3 1699.4,973.3 1458.3,736.6 1338,618.5 1458.3,618.5 1699.4,856.7 1817.4,973.3 "/>
<polygon class="st0" points="607.4,1209.9 727.7,1328 607.4,1328 366.3,1092.9 305.2,1033.3 246,975.5 248.3,973.3 366.3,856.7 
	607.4,618.5 727.7,618.5 607.4,736.6 366.3,973.3 366.3,973.3 366.3,973.3 "/>
</svg>
