<?xml version="1.0" encoding="utf-8"?>
<!-- Generator: Adobe Illustrator 24.1.1, SVG Export Plug-In . SVG Version: 6.00 Build 0)  -->
<svg version="1.1" id="Layer_1" xmlns="http://www.w3.org/2000/svg" xmlns:xlink="http://www.w3.org/1999/xlink" x="0px" y="0px"
	 viewBox="0 0 2000 2000" style="enable-background:new 0 0 2000 2000;" xml:space="preserve">
<style type="text/css">
	.st0{fill:#FDE74C;}
	.st1{fill:none;}
</style>
<path class="st0" d="M1432,999c0,21.75-1.6,43.12-4.71,64c-30.92,208.79-210.9,369-428.29,369c-239.14,0-433-193.86-433-433
	s193.86-433,433-433c165.8,0,309.83,93.19,382.58,230.04l-142.01,75.91C1193.94,785.74,1103.33,727,999,727
	c-150.22,0-272,121.78-272,272s121.78,272,272,272c128.18,0,235.65-88.66,264.43-208h-155.07c-21.86,37.38-62.43,62.5-108.86,62.5
	c-69.59,0-126-56.41-126-126s56.41-126,126-126c48.35,0,90.34,27.23,111.46,67.19c0.06,0.1,0.12,0.21,0.17,0.31h317.01
	C1430.69,959.97,1432,979.33,1432,999z"/>
<line class="st1" x1="1111.13" y1="941" x2="1111" y2="941"/>
<line class="st1" x1="1108.36" y1="1063" x2="1108" y2="1063"/>
</svg>
