<?xml version="1.0" encoding="utf-8"?>
<!-- Generator: Adobe Illustrator 24.1.1, SVG Export Plug-In . SVG Version: 6.00 Build 0)  -->
<svg version="1.1" id="Layer_1" xmlns="http://www.w3.org/2000/svg" xmlns:xlink="http://www.w3.org/1999/xlink" x="0px" y="0px"
	 viewBox="0 0 2000 2000" style="enable-background:new 0 0 2000 2000;" xml:space="preserve">
<style type="text/css">
	.st0{fill:url(#SVGID_1_);}
	.st1{fill:url(#SVGID_2_);}
	.st2{fill:#FFFFFF;}
	.st3{fill:none;}
</style>
<linearGradient id="SVGID_1_" gradientUnits="userSpaceOnUse" x1="1200.9847" y1="1639.9952" x2="1200.9847" y2="667.994" gradientTransform="matrix(1 0 0 -1 0 2000)">
	<stop  offset="0" style="stop-color:#ED1E79"/>
	<stop  offset="0" style="stop-color:#ED1F78"/>
	<stop  offset="0" style="stop-color:#EF2B73"/>
	<stop  offset="0" style="stop-color:#EE2376"/>
	<stop  offset="1.960000e-02" style="stop-color:#EE2476"/>
	<stop  offset="0.4441" style="stop-color:#F03D6B"/>
	<stop  offset="0.4811" style="stop-color:#F14C65"/>
	<stop  offset="0.5844" style="stop-color:#F57056"/>
	<stop  offset="0.6885" style="stop-color:#F88C4A"/>
	<stop  offset="0.7925" style="stop-color:#F9A042"/>
	<stop  offset="0.8964" style="stop-color:#FBAC3D"/>
	<stop  offset="1" style="stop-color:#FBB03B"/>
</linearGradient>
<path class="st0" d="M1687,881.5c0,17.2-0.9,34.2-2.7,51c-1.8,17.3-4.6,34.3-8.2,51c-47.2,219.4-242.4,383.6-475.9,383.3
	c-233.4-0.4-428.2-165.2-474.7-384.8c-3.5-16.7-6.2-33.7-8-51c-1.7-16.8-2.6-33.8-2.6-51c0-17.2,1-34.2,2.7-51
	c1.9-17.6,4.7-35,8.4-52c47.6-218.9,242.6-382.6,475.7-382.3s427.6,164.7,474.5,383.8l-124.8-0.2c-44.2-151.5-184-262.3-349.8-262.5
	s-306,110.1-350.7,261.4c-5,16.8-8.8,34.2-11.3,52c-2.3,16.7-3.6,33.7-3.6,51c0,17.3,1.2,34.3,3.5,51c2.4,17.4,6.1,34.5,10.8,51
	c43.9,152,184,263.3,350.1,263.6s306.6-110.6,351-262.5c4.8-16.5,8.5-33.6,11-51l-177.4-0.3c4.5-16.2,6.9-33.3,7-51
	s-2.3-34.8-6.8-51l299.2,0.5C1686.1,847.3,1687,864.3,1687,881.5z"/>
<linearGradient id="SVGID_2_" gradientUnits="userSpaceOnUse" x1="1192.3098" y1="1429.2103" x2="1192.3098" y2="809.2096" gradientTransform="matrix(1 0 0 -1 0 2000)">
	<stop  offset="0" style="stop-color:#ED1E79"/>
	<stop  offset="0" style="stop-color:#ED1F78"/>
	<stop  offset="0" style="stop-color:#EF2B73"/>
	<stop  offset="0" style="stop-color:#EE2376"/>
	<stop  offset="1.960000e-02" style="stop-color:#EE2476"/>
	<stop  offset="0.4441" style="stop-color:#F03D6B"/>
	<stop  offset="0.4811" style="stop-color:#F14C65"/>
	<stop  offset="0.5844" style="stop-color:#F57056"/>
	<stop  offset="0.6885" style="stop-color:#F88C4A"/>
	<stop  offset="0.7925" style="stop-color:#F9A042"/>
	<stop  offset="0.8964" style="stop-color:#FBAC3D"/>
	<stop  offset="1" style="stop-color:#FBB03B"/>
</linearGradient>
<path class="st1" d="M1493.6,983.3c-42.4,121-157.7,207.8-293.2,207.5S950,1103.5,908,982.3c-5.7-16.4-10-33.5-12.9-51
	c-2.7-16.6-4.1-33.6-4.1-51s1.5-34.4,4.3-51c3-17.9,7.5-35.3,13.4-52c42.7-120.5,157.7-206.8,292.8-206.5s249.9,86.8,292.1,207.5
	L1362,778c-33.9-53-93.2-88.2-160.7-88.3s-127,34.9-161,87.8c-10.2,15.9-18.1,33.3-23.3,52c-4.5,16.2-6.9,33.3-7,51
	c0,17.7,2.3,34.8,6.8,51c5,18.3,12.7,35.4,22.5,51c33.8,53.5,93.4,89.2,161.4,89.3c68,0.1,127.7-35.3,161.7-88.8L1493.6,983.3z"/>
<path class="st2" d="M752.5,1354.6c-11.6,4.9-23.9,6.1-35.5,4.1c-20.6-3.6-38.9-17.2-47.7-37.9L497.2,912.6
	c-13.6-32.3,1.5-69.6,33.8-83.2c11.6-4.9,23.9-6.1,35.5-4.1c20.6,3.6,38.9,17.2,47.7,37.9l172.1,408.2
	C800,1303.7,784.8,1341,752.5,1354.6z"/>
<path class="st2" d="M559.5,1360c-11.6,4.9-23.9,6.1-35.5,4.1c-20.6-3.6-38.9-17.2-47.7-37.9L358.5,1047
	c-13.6-32.3,1.5-69.6,33.8-83.2c11.6-4.9,23.9-6.1,35.5-4.1c20.6,3.6,38.9,17.2,47.7,37.9l117.7,279.2
	C606.9,1309.2,591.8,1346.4,559.5,1360z"/>
<path class="st2" d="M364.9,1361.8c-11.6,4.9-23.9,6.1-35.5,4.1c-20.6-3.6-38.9-17.2-47.7-37.9l-63.7-151.1
	c-13.6-32.3,1.5-69.6,33.8-83.2c11.6-4.9,23.9-6.1,35.5-4.1c20.6,3.6,39,17.2,47.7,37.9l63.7,151.1
	C412.3,1310.9,397.2,1348.2,364.9,1361.8z"/>
<line class="st3" x1="759" y1="1283.2" x2="759" y2="1284.9"/>
</svg>
