<?xml version="1.0" encoding="utf-8"?>
<!-- Generator: Adobe Illustrator 24.1.1, SVG Export Plug-In . SVG Version: 6.00 Build 0)  -->
<svg version="1.1" id="Layer_1" xmlns="http://www.w3.org/2000/svg" xmlns:xlink="http://www.w3.org/1999/xlink" x="0px" y="0px"
	 viewBox="0 0 2000 2000" style="enable-background:new 0 0 2000 2000;" xml:space="preserve">
<style type="text/css">
	.st0{fill:url(#SVGID_1_);}
	.st1{fill:url(#SVGID_2_);}
	.st2{fill:url(#SVGID_3_);}
	.st3{fill:url(#SVGID_4_);}
</style>
<g>
	
		<image style="overflow:visible;opacity:0.75;" width="1105" height="1105" xlink:href="3F479400.png"  transform="matrix(1 0 0 1 478 438)">
	</image>
	<g>
		<linearGradient id="SVGID_1_" gradientUnits="userSpaceOnUse" x1="995.95" y1="521.1996" x2="995.95" y2="1493.3003">
			<stop  offset="0.1536" style="stop-color:#ED1E79"/>
			<stop  offset="0.748" style="stop-color:#F9A94C"/>
			<stop  offset="0.911" style="stop-color:#FDD53E"/>
			<stop  offset="1" style="stop-color:#FFE838"/>
		</linearGradient>
		<path class="st0" d="M1482,1000.1c0,17.2-0.9,34.2-2.7,51c-1.8,17.3-4.6,34.3-8.2,51c-47.2,219.4-242.4,383.6-475.9,383.3
			c-233.4-0.4-428.2-165.2-474.7-384.8c-3.5-16.7-6.2-33.7-8-51c-1.7-16.8-2.6-33.8-2.6-51s1-34.2,2.7-51c1.9-17.6,4.7-35,8.4-52
			C568.6,676.7,763.6,513,996.7,513.3s427.6,164.7,474.5,383.8l-124.8-0.2c-44.2-151.5-184-262.3-349.8-262.5
			s-306,110.1-350.7,261.4c-5,16.8-8.8,34.2-11.3,52c-2.3,16.7-3.6,33.7-3.6,51s1.2,34.3,3.5,51c2.4,17.4,6.1,34.5,10.8,51
			c43.9,152,184,263.3,350.1,263.6s306.6-110.6,351-262.5c4.8-16.5,8.5-33.6,11-51l-177.4-0.3c4.5-16.2,6.9-33.3,7-51
			s-2.3-34.8-6.8-51l299.2,0.5C1481.1,965.9,1482,982.9,1482,1000.1z"/>
	</g>
</g>
<g>
	
		<image style="overflow:visible;opacity:0.75;" width="735" height="753" xlink:href="3F479401.png"  transform="matrix(1 0 0 1 655 614)">
	</image>
	<g>
		<linearGradient id="SVGID_2_" gradientUnits="userSpaceOnUse" x1="987.3" y1="689.3992" x2="987.3" y2="1309.4008">
			<stop  offset="0" style="stop-color:#ED1E79"/>
			<stop  offset="9.881300e-02" style="stop-color:#EE2875"/>
			<stop  offset="0.2637" style="stop-color:#F0416A"/>
			<stop  offset="0.4744" style="stop-color:#F46B58"/>
			<stop  offset="0.7205" style="stop-color:#FAA440"/>
			<stop  offset="0.7663" style="stop-color:#FBB03B"/>
			<stop  offset="0.9944" style="stop-color:#FFE838"/>
		</linearGradient>
		<path class="st1" d="M1288.6,1101.9c-42.4,121-157.7,207.8-293.2,207.5S745,1222.1,703,1100.9c-5.7-16.4-10-33.5-12.9-51
			c-2.7-16.6-4.1-33.6-4.1-51s1.5-34.4,4.3-51c3-17.9,7.5-35.3,13.4-52c42.7-120.5,157.7-206.8,292.8-206.5s249.9,86.8,292.1,207.5
			l-131.6-0.3c-33.9-53-93.2-88.2-160.7-88.3s-127,34.9-161,87.8c-10.2,15.9-18.1,33.3-23.3,52c-4.5,16.2-6.9,33.3-7,51
			c0,17.7,2.3,34.8,6.8,51c5,18.3,12.7,35.4,22.5,51c33.8,53.5,93.4,89.2,161.4,89.3c68,0.1,127.7-35.3,161.7-88.8L1288.6,1101.9z"
			/>
	</g>
</g>
<g>
</g>
<g>
	
		<image style="overflow:visible;opacity:0.75;" width="467" height="936" xlink:href="3F479402.png"  transform="matrix(1 0 0 1 1396 523)">
	</image>
	<g>
		
			<linearGradient id="SVGID_3_" gradientUnits="userSpaceOnUse" x1="1680.3787" y1="1328.793" x2="1300.7213" y2="671.2071" gradientTransform="matrix(1 0 0 -1 0 2000)">
			<stop  offset="5.170672e-02" style="stop-color:#FFE838"/>
			<stop  offset="0.1357" style="stop-color:#FDD13A"/>
			<stop  offset="0.2495" style="stop-color:#FBAC3D"/>
			<stop  offset="0.6372" style="stop-color:#F24966"/>
			<stop  offset="0.6796" style="stop-color:#F13D6B"/>
			<stop  offset="0.7552" style="stop-color:#EF2F71"/>
			<stop  offset="0.8472" style="stop-color:#EE2775"/>
			<stop  offset="1" style="stop-color:#EE2476"/>
		</linearGradient>
		<polygon class="st2" points="1762,1000 1762,1000 1698.3,1122.9 1634.8,1245.8 1554.1,1401.7 1427,1401.7 1554.1,1155.8 
			1634.7,1000 1634.8,1000 1634.8,1000 1554.1,844.2 1427,598.3 1554.1,598.3 1634.8,754.1 1698.3,877 		"/>
	</g>
</g>
<g>
	
		<image style="overflow:visible;opacity:0.75;" width="468" height="936" xlink:href="3F47941F.png"  transform="matrix(1 0 0 1 197 523)">
	</image>
	<g>
		
			<linearGradient id="SVGID_4_" gradientUnits="userSpaceOnUse" x1="2491.0327" y1="671.2072" x2="2870.6902" y2="1328.7928" gradientTransform="matrix(-1 0 0 -1 3180.7114 2000)">
			<stop  offset="5.170672e-02" style="stop-color:#FFE838"/>
			<stop  offset="0.1357" style="stop-color:#FDD13A"/>
			<stop  offset="0.2495" style="stop-color:#FBAC3D"/>
			<stop  offset="0.6372" style="stop-color:#F24966"/>
			<stop  offset="0.6796" style="stop-color:#F13D6B"/>
			<stop  offset="0.7552" style="stop-color:#EF2F71"/>
			<stop  offset="0.8472" style="stop-color:#EE2775"/>
			<stop  offset="1" style="stop-color:#EE2476"/>
		</linearGradient>
		<polygon class="st3" points="292.1,877 355.6,754.1 436.3,598.3 563.4,598.3 436.3,844.2 355.6,1000.1 355.6,1000.1 355.7,1000.1 
			436.3,1155.8 563.4,1401.7 436.3,1401.7 355.6,1245.8 292.1,1123 228.4,1000.1 228.4,1000.1 		"/>
	</g>
</g>
</svg>
